<svg width="279" height="83" viewBox="0 0 279 83" fill="none" xmlns="http://www.w3.org/2000/svg">
<circle cx="29.5" cy="29.5" r="29.5" fill="url(#paint0_linear_5_13)"/>
<circle cx="29.5" cy="29.5" r="29.5" fill="url(#paint1_radial_5_13)"/>
<circle cx="29.5" cy="29.5" r="22" stroke="white" stroke-width="3"/>
<path fill-rule="evenodd" clip-rule="evenodd" d="M29.6275 21C35.7401 21 41.2634 23.8105 46.2549 29.295C41.2627 34.7781 35.7397 37.5882 29.6275 37.5882C23.5148 37.5882 17.9915 34.7777 13 29.2932C17.9922 23.8102 23.5152 21 29.6275 21Z" stroke="white" stroke-width="3"/>
<path d="M29.1524 31.1373C31.7761 31.1373 33.9031 29.0743 33.9031 26.5294C33.9031 23.9846 31.7761 21.9216 29.1524 21.9216C26.5287 21.9216 24.4017 23.9846 24.4017 26.5294C24.4017 29.0743 26.5287 31.1373 29.1524 31.1373Z" stroke="white" stroke-width="3"/>
<path d="M101.374 5.66998C101.324 5.72038 101.261 5.84638 101.185 6.04798C101.109 6.24958 101.072 6.60238 101.072 7.10638C101.072 7.81199 101.172 8.49238 101.374 9.14758V34.1712C101.374 36.7416 101.122 39.2112 100.618 41.58C100.114 43.9488 99.2446 46.053 98.0098 47.8926C96.775 49.7322 95.0866 51.1938 92.9446 52.2774C90.8026 53.361 88.0684 53.9028 84.742 53.9028H83.7592C80.8864 53.9028 78.5554 53.5122 76.7662 52.731C74.977 51.9498 73.5784 50.9544 72.5704 49.7448C71.5624 48.5352 70.882 47.2122 70.5292 45.7758C70.1764 44.3394 70 42.966 70 41.6556C70 40.5468 70.1386 39.4758 70.4158 38.4426C70.693 37.4094 71.0962 36.5022 71.6254 35.721C72.1546 34.9398 72.7972 34.3098 73.5532 33.831C74.3092 33.3522 75.166 33.1128 76.1236 33.1128C77.0308 33.1128 77.6104 33.3522 77.8624 33.831C78.1144 34.3098 78.2404 34.8012 78.2404 35.3052C78.2404 36.414 78.0136 37.3338 77.56 38.0646C77.1064 38.7954 76.615 39.438 76.0858 39.9924C75.5566 40.5468 75.0652 41.1012 74.6116 41.6556C74.158 42.21 73.9312 42.8904 73.9312 43.6968C73.9312 46.116 74.7376 47.8548 76.3504 48.9132C77.9632 49.9716 79.9792 50.5008 82.3984 50.5008C84.5152 50.5008 86.3548 50.0724 87.9172 49.2156C89.4796 48.3588 90.7774 47.2752 91.8106 45.9648C92.8438 44.6544 93.6124 43.2306 94.1164 41.6934C94.6204 40.1562 94.8724 38.7072 94.8724 37.3464L93.7384 37.422C91.924 37.422 90.349 37.0062 89.0134 36.1746C87.6778 35.343 86.569 34.2972 85.687 33.0372C84.805 31.7772 84.1498 30.4164 83.7214 28.9548C83.293 27.4932 83.0788 26.1324 83.0788 24.8724V22.2264C83.0788 21.2688 83.2048 20.1474 83.4568 18.8622C83.7088 17.577 84.0616 16.2414 84.5152 14.8554C84.9688 13.4694 85.5232 12.1086 86.1784 10.773C86.8336 9.43739 87.5392 8.24038 88.2952 7.18198C89.0512 6.12358 89.8576 5.26678 90.7144 4.61158C91.5712 3.95638 92.4532 3.62878 93.3604 3.62878C93.7132 3.62878 94.1164 3.70438 94.57 3.85558L99.862 4.23358C100.215 4.28398 100.555 4.40998 100.883 4.61158C101.21 4.81318 101.374 5.16598 101.374 5.66998ZM94.8724 14.742C94.9732 14.3388 95.074 13.9608 95.1748 13.608C95.2756 13.2552 95.326 12.852 95.326 12.3984C95.326 11.7432 95.1622 11.151 94.8346 10.6218C94.507 10.0926 93.9148 9.82799 93.058 9.82799C91.9492 9.82799 91.042 10.2816 90.3364 11.1888C89.6308 12.096 89.089 13.1796 88.711 14.4396C88.333 15.6996 88.0684 17.01 87.9172 18.3708C87.766 19.7316 87.6904 20.8404 87.6904 21.6972C87.6904 22.3524 87.7408 23.2974 87.8416 24.5322C87.9424 25.767 88.1818 26.9892 88.5598 28.1988C88.9378 29.4084 89.467 30.4668 90.1474 31.374C90.8278 32.2812 91.7476 32.7348 92.9068 32.7348C93.0076 32.7348 93.2974 32.7096 93.7762 32.6592C94.255 32.6088 94.6204 32.5332 94.8724 32.4324V14.742Z" fill="black"/>
<path d="M124.104 46.1916C124.104 47.4012 123.701 48.3336 122.895 48.9888C122.088 49.644 121.169 50.1228 120.135 50.4252C119.102 50.7276 118.069 50.9166 117.036 50.9922C116.003 51.0678 115.259 51.1056 114.806 51.1056C114.1 51.1056 113.231 51.03 112.197 50.8788C111.164 50.7276 110.156 50.4882 109.173 50.1606C108.191 49.833 107.359 49.3668 106.679 48.762C105.998 48.1572 105.658 47.4012 105.658 46.494C105.658 45.9396 105.872 45.549 106.301 45.3222C106.729 45.0954 107.145 44.982 107.548 44.982C108.102 44.982 108.644 45.1836 109.173 45.5868C109.703 45.99 110.257 46.4184 110.837 46.872C111.416 47.3256 112.059 47.754 112.764 48.1572C113.47 48.5604 114.276 48.762 115.184 48.762C115.587 48.762 116.129 48.6234 116.809 48.3462C117.489 48.069 117.83 47.5776 117.83 46.872C117.83 46.1664 117.54 45.486 116.96 44.8308C116.381 44.1756 115.65 43.4952 114.768 42.7896C113.886 42.084 112.941 41.3532 111.933 40.5972C110.925 39.8412 109.98 39.0222 109.098 38.1402C108.216 37.2582 107.485 36.288 106.905 35.2296C106.326 34.1712 106.036 33.012 106.036 31.752C106.036 29.988 106.603 28.5012 107.737 27.2916C108.871 26.082 110.207 25.1244 111.744 24.4188C113.281 23.7132 114.856 23.2092 116.469 22.9068C118.082 22.6044 119.342 22.4532 120.249 22.4532C121.106 22.4532 121.962 22.6296 122.819 22.9824C123.676 23.3352 124.104 24.0156 124.104 25.0236C124.104 25.326 124.041 25.767 123.915 26.3466C123.789 26.9262 123.588 27.4932 123.311 28.0476C123.033 28.602 122.668 29.0934 122.214 29.5218C121.761 29.9502 121.181 30.1644 120.476 30.1644C120.274 30.1644 120.072 30.0762 119.871 29.8998C119.669 29.7234 119.442 29.5218 119.19 29.295C118.938 29.0682 118.674 28.8666 118.397 28.6902C118.119 28.5138 117.804 28.4256 117.452 28.4256C115.688 28.4256 114.453 28.9422 113.747 29.9754C113.042 31.0086 112.689 32.1048 112.689 33.264C112.689 34.272 113.281 35.3304 114.465 36.4392C115.65 37.548 116.96 38.6568 118.397 39.7656C119.833 40.8744 121.143 41.9706 122.328 43.0542C123.512 44.1378 124.104 45.1836 124.104 46.1916Z" fill="black"/>
<path d="M156.36 37.9512C156.26 39.06 156.045 40.32 155.718 41.7312C155.39 43.1424 154.911 44.478 154.281 45.738C153.651 46.998 152.82 48.0564 151.787 48.9132C150.753 49.77 149.506 50.1984 148.044 50.1984C145.877 50.1984 144.302 49.6944 143.319 48.6864C142.337 47.6784 141.518 46.116 140.862 43.9992L140.787 44.3772C140.585 45.1836 140.346 46.0656 140.069 47.0232C139.791 47.9808 139.413 48.8502 138.935 49.6314C138.456 50.4126 137.864 51.0678 137.158 51.597C136.452 52.1262 135.545 52.3908 134.436 52.3908C133.68 52.3908 132.937 52.2522 132.206 51.975C131.475 51.6978 130.707 51.3576 129.9 50.9544C128.741 50.3496 127.834 49.5432 127.179 48.5352C126.524 47.5272 126.045 46.494 125.742 45.4356C125.44 44.3772 125.264 43.3566 125.213 42.3738C125.163 41.391 125.138 40.6224 125.138 40.068V38.7828C125.138 38.4804 125.213 37.8252 125.364 36.8172C125.516 35.8092 125.755 34.6374 126.083 33.3018C126.41 31.9662 126.813 30.5676 127.292 29.106C127.771 27.6444 128.351 26.3088 129.031 25.0992C129.711 23.8896 130.493 22.8816 131.375 22.0752C132.257 21.2688 133.252 20.8656 134.361 20.8656C135.57 20.8656 136.742 21.0672 137.876 21.4704C139.01 21.8736 139.829 22.176 140.333 22.3776C140.384 21.4704 140.421 20.3616 140.447 19.0512C140.472 17.7408 140.497 16.443 140.522 15.1578C140.547 13.8726 140.56 12.6756 140.56 11.5668C140.56 10.458 140.56 9.6264 140.56 9.072C140.56 7.7616 140.535 6.6402 140.484 5.7078C140.434 4.7754 140.346 3.9816 140.22 3.3264C140.094 2.6712 139.955 2.142 139.804 1.7388C139.653 1.3356 139.476 0.9828 139.275 0.6804C140.132 0.4284 140.976 0.252 141.807 0.1512C142.639 0.0504 143.408 0 144.113 0C145.272 0 146.167 0.0882 146.797 0.2646C147.427 0.441 147.742 0.882 147.742 1.5876C147.742 1.89 147.666 2.772 147.515 4.2336C147.364 5.6952 147.213 7.5978 147.062 9.9414C146.91 12.285 146.759 14.994 146.608 18.0684C146.457 21.1428 146.381 24.4188 146.381 27.8964V35.532C146.381 36.9432 146.406 38.2914 146.457 39.5766C146.507 40.8618 146.621 41.9958 146.797 42.9786C146.973 43.9614 147.238 44.7426 147.591 45.3222C147.944 45.9018 148.448 46.1916 149.103 46.1916C150.564 46.1916 151.661 45.3474 152.391 43.659C153.122 41.9706 153.714 39.312 154.168 35.6832C154.218 35.28 154.319 34.9272 154.47 34.6248C154.622 34.3224 154.949 34.1712 155.453 34.1712C155.907 34.1712 156.197 34.461 156.323 35.0406C156.449 35.6202 156.486 36.1872 156.436 36.7416L156.36 37.9512ZM140.409 26.9892C140.409 26.838 140.295 26.6616 140.069 26.46C139.842 26.2584 139.565 26.0568 139.237 25.8552C138.909 25.6536 138.569 25.4772 138.216 25.326C137.864 25.1748 137.561 25.0992 137.309 25.0992C136.301 25.0992 135.407 25.7166 134.625 26.9514C133.844 28.1862 133.189 29.7108 132.66 31.5252C132.131 33.3396 131.74 35.28 131.488 37.3464C131.236 39.4128 131.11 41.2524 131.11 42.8652C131.11 43.47 131.135 44.1756 131.186 44.982C131.236 45.7884 131.362 46.5444 131.564 47.25C131.765 47.9556 132.042 48.5604 132.395 49.0644C132.748 49.5684 133.227 49.8204 133.832 49.8204C134.487 49.8204 135.092 49.4424 135.646 48.6864C136.2 47.9304 136.704 46.9476 137.158 45.738C137.612 44.5284 138.027 43.1676 138.405 41.6556C138.783 40.1436 139.111 38.6442 139.388 37.1574C139.665 35.6706 139.88 34.2594 140.031 32.9238C140.182 31.5882 140.283 30.5172 140.333 29.7108L140.409 26.9892Z" fill="black"/>
<path d="M162.761 15.876C162.761 16.2288 162.585 16.5186 162.232 16.7454C161.879 16.9722 161.489 17.136 161.06 17.2368C160.632 17.3376 160.216 17.4132 159.813 17.4636C159.41 17.514 159.158 17.5392 159.057 17.5392C157.998 17.5392 156.953 17.2368 155.919 16.632C154.886 16.0272 153.941 15.0696 153.084 13.7592C152.984 13.608 152.832 13.4064 152.631 13.1544C152.429 12.9024 152.328 12.726 152.328 12.6252C152.328 12.3732 152.517 12.1464 152.895 11.9448C153.273 11.7432 153.702 11.5416 154.181 11.34C154.659 11.1384 155.113 10.9872 155.541 10.8864C155.97 10.7856 156.26 10.7352 156.411 10.7352C157.419 10.7352 158.414 10.9872 159.397 11.4912C160.38 11.9952 161.174 12.9276 161.778 14.2884C161.879 14.4396 162.068 14.7042 162.345 15.0822C162.623 15.4602 162.761 15.7248 162.761 15.876ZM170.472 38.7828C170.321 39.9924 170.044 41.2524 169.641 42.5628C169.238 43.8732 168.671 45.0954 167.94 46.2294C167.209 47.3634 166.289 48.2958 165.18 49.0266C164.072 49.7574 162.711 50.1228 161.098 50.1228C159.838 50.1228 158.553 49.6944 157.242 48.8376C155.932 47.9304 155.037 46.746 154.559 45.2844C154.08 43.8228 153.84 42.4116 153.84 41.0508C153.84 40.6476 153.866 40.0428 153.916 39.2364C153.966 38.43 153.992 37.4472 153.992 36.288V27.972C153.992 27.5688 153.979 27.1404 153.954 26.6868C153.929 26.2332 153.866 25.8048 153.765 25.4016C153.714 25.2 153.626 24.9732 153.5 24.7212C153.374 24.4692 153.311 24.2928 153.311 24.192C153.311 23.9904 153.437 23.8266 153.689 23.7006C153.941 23.5746 154.218 23.4864 154.521 23.436C154.823 23.3856 155.113 23.3604 155.39 23.3604C155.667 23.3604 155.806 23.3604 155.806 23.3604C155.957 23.3604 156.31 23.373 156.864 23.3982C157.419 23.4234 157.998 23.5116 158.603 23.6628C159.208 23.814 159.75 24.0534 160.229 24.381C160.707 24.7086 160.947 25.1748 160.947 25.7796C160.997 25.9308 160.909 26.208 160.682 26.6112C160.455 27.0144 160.241 27.72 160.04 28.728C159.989 29.1312 159.939 29.4966 159.888 29.8242C159.838 30.1518 159.788 30.5172 159.737 30.9204C159.687 31.3236 159.636 31.815 159.586 32.3946C159.536 32.9742 159.485 33.7176 159.435 34.6248V39.1608C159.435 39.9672 159.46 40.7862 159.51 41.6178C159.561 42.4494 159.674 43.2054 159.851 43.8858C160.027 44.5662 160.317 45.1206 160.72 45.549C161.123 45.9774 161.652 46.1916 162.308 46.1916C163.265 46.1916 164.021 45.9144 164.576 45.36C165.13 44.8056 165.558 44.3268 165.861 43.9236C166.415 43.1676 166.844 42.2226 167.146 41.0886C167.448 39.9546 167.726 38.7828 167.978 37.5732L168.129 36.8172C168.28 36.0612 168.734 35.6832 169.49 35.6832C170.246 35.6832 170.624 36.2124 170.624 37.2708V37.6488L170.472 38.7828Z" fill="black"/>
<path d="M192.371 52.8444C192.371 53.3484 192.144 53.7012 191.691 53.9028C191.237 54.1044 190.809 54.2052 190.406 54.2052L188.894 54.054C188.642 54.054 188.516 54.2052 188.516 54.5076L188.44 55.4148C188.49 56.7756 188.516 58.4892 188.516 60.5556C188.516 62.622 188.516 64.6128 188.516 66.528C188.516 68.544 188.453 70.5222 188.327 72.4626C188.201 74.403 187.911 76.1418 187.457 77.679C187.004 79.2162 186.361 80.451 185.529 81.3834C184.698 82.3158 183.551 82.782 182.09 82.782C180.83 82.782 179.507 82.719 178.121 82.593C176.735 82.467 175.475 82.152 174.341 81.648C173.207 81.144 172.274 80.4006 171.543 79.4178C170.813 78.435 170.447 77.112 170.447 75.4488C170.447 73.7856 170.636 72.0846 171.014 70.3458C171.392 68.607 171.934 66.9186 172.64 65.2806C173.345 63.6426 174.189 62.0802 175.172 60.5934C176.155 59.1066 177.226 57.7836 178.385 56.6244C178.99 56.0196 179.658 55.4022 180.389 54.7722C181.119 54.1422 181.762 53.6256 182.316 53.2224V53.1468C182.417 52.0884 182.493 51.03 182.543 49.9716C182.594 48.9132 182.619 47.8296 182.619 46.7208C182.367 47.1744 182.064 47.7918 181.712 48.573C181.359 49.3542 180.943 50.0976 180.464 50.8032C179.985 51.5088 179.444 52.1262 178.839 52.6554C178.234 53.1846 177.554 53.4492 176.798 53.4492C176.394 53.4492 176.042 53.3736 175.739 53.2224C175.437 53.0712 175.008 52.9956 174.454 52.9956C173.043 52.8948 171.871 52.5168 170.939 51.8616C170.006 51.2064 169.275 50.2992 168.746 49.14C168.217 47.9808 167.852 46.6074 167.65 45.0198C167.448 43.4322 167.348 41.6556 167.348 39.69C167.348 37.3212 167.486 34.8768 167.763 32.3568C168.041 29.8368 168.532 27.531 169.238 25.4394C169.943 23.3478 170.888 21.6342 172.073 20.2986C173.257 18.963 174.756 18.2952 176.571 18.2952C176.772 18.2952 177.037 18.3708 177.365 18.522C177.692 18.6732 178.045 18.837 178.423 19.0134C178.801 19.1898 179.179 19.3662 179.557 19.5426C179.935 19.719 180.225 19.8324 180.426 19.8828C181.434 20.0844 182.367 20.3364 183.224 20.6388C184.08 20.9412 184.811 21.3318 185.416 21.8106C186.021 22.2894 186.5 22.9194 186.852 23.7006C187.205 24.4818 187.382 25.452 187.382 26.6112C187.382 27.4176 187.319 28.1484 187.193 28.8036C187.067 29.4588 187.004 30.2904 187.004 31.2984C187.004 31.7016 187.155 31.9788 187.457 32.13C187.76 32.2812 188.1 32.4072 188.478 32.508C188.856 32.6088 189.196 32.7222 189.498 32.8482C189.801 32.9742 189.952 33.2388 189.952 33.642C189.952 33.7428 189.839 33.9822 189.612 34.3602C189.385 34.7382 189.246 34.9776 189.196 35.0784C189.045 35.4816 188.919 36.1242 188.818 37.0062C188.717 37.8882 188.642 38.8458 188.591 39.879C188.541 40.9122 188.503 41.9706 188.478 43.0542C188.453 44.1378 188.44 45.108 188.44 45.9648C188.44 46.62 188.44 47.4894 188.44 48.573C188.44 49.6566 188.465 50.5512 188.516 51.2568H188.818C188.919 51.2568 189.02 51.2442 189.12 51.219C189.221 51.1938 189.297 51.1812 189.347 51.1812C189.801 51.1812 190.418 51.3198 191.199 51.597C191.981 51.8742 192.371 52.29 192.371 52.8444ZM182.694 29.484C182.694 28.9296 182.644 28.2996 182.543 27.594C182.442 26.8884 182.266 26.2206 182.014 25.5906C181.762 24.9606 181.397 24.4314 180.918 24.003C180.439 23.5746 179.847 23.3604 179.141 23.3604C178.184 23.3604 177.289 23.7384 176.457 24.4944C175.626 25.2504 174.895 26.3214 174.265 27.7074C173.635 29.0934 173.131 30.7818 172.753 32.7726C172.375 34.7634 172.186 37.0188 172.186 39.5388C172.186 40.5972 172.224 41.6934 172.299 42.8274C172.375 43.9614 172.501 44.982 172.677 45.8892C172.854 46.7964 173.131 47.5524 173.509 48.1572C173.887 48.762 174.378 49.0644 174.983 49.0644C176.042 49.0644 176.974 48.6108 177.78 47.7036C178.587 46.7964 179.255 45.675 179.784 44.3394C180.313 43.0038 180.716 41.6178 180.993 40.1814C181.271 38.745 181.434 37.4976 181.485 36.4392C181.535 34.9776 181.611 33.9822 181.712 33.453C181.812 32.9238 181.913 32.5836 182.014 32.4324C182.316 32.0292 182.505 31.5504 182.581 30.996C182.657 30.4416 182.694 29.9376 182.694 29.484ZM182.392 55.7928C181.233 56.5992 180.137 57.7332 179.103 59.1948C178.07 60.6564 177.176 62.244 176.42 63.9576C175.664 65.6712 175.071 67.41 174.643 69.174C174.215 70.938 174 72.5256 174 73.9368C174 74.4408 174.051 74.9952 174.152 75.6C174.252 76.2048 174.416 76.7718 174.643 77.301C174.87 77.8302 175.197 78.2712 175.626 78.624C176.054 78.9768 176.571 79.1532 177.176 79.1532C178.234 79.1532 179.103 78.7122 179.784 77.8302C180.464 76.9482 180.993 75.9024 181.371 74.6928C181.749 73.4832 182.001 72.2484 182.127 70.9884C182.253 69.7284 182.316 68.7204 182.316 67.9644C182.316 67.8132 182.316 67.5864 182.316 67.284C182.316 66.9816 182.329 66.402 182.354 65.5452C182.379 64.6884 182.392 63.4914 182.392 61.9542C182.392 60.417 182.392 58.3632 182.392 55.7928Z" fill="black"/>
<path d="M213.968 40.2192C213.968 40.572 213.854 41.4162 213.627 42.7518C213.401 44.0874 212.997 45.4986 212.418 46.9854C211.838 48.4722 211.057 49.7952 210.074 50.9544C209.091 52.1136 207.844 52.6932 206.332 52.6932C204.719 52.6932 203.434 52.1262 202.476 50.9922C201.519 49.8582 200.788 48.4974 200.284 46.9098C199.78 45.3222 199.452 43.659 199.301 41.9202C199.15 40.1814 199.074 38.7324 199.074 37.5732C199.074 36.2628 199.15 34.9398 199.301 33.6042C199.452 32.2686 199.553 30.9456 199.604 29.6352C199.604 29.232 199.402 28.98 198.999 28.8792C198.596 28.7784 198.218 28.728 197.865 28.728C197.26 28.728 196.882 28.8036 196.731 28.9548C196.58 29.106 196.479 29.2824 196.428 29.484L196.126 31.9032C195.924 33.516 195.71 35.0658 195.483 36.5526C195.257 38.0394 195.005 39.3498 194.727 40.4838C194.45 41.6178 194.123 42.525 193.745 43.2054C193.367 43.8858 192.926 44.226 192.422 44.226H192.346C192.144 44.226 191.955 44.1756 191.779 44.0748C191.603 43.974 191.514 43.722 191.514 43.3188C191.514 43.1172 191.565 42.8148 191.666 42.4116C192.069 40.6476 192.321 39.186 192.422 38.0268C192.522 36.8676 192.598 35.8344 192.648 34.9272V34.398C192.648 34.146 192.661 33.8436 192.686 33.4908C192.711 33.138 192.724 32.7096 192.724 32.2056V30.24C192.724 29.6856 192.724 29.106 192.724 28.5012C192.724 27.8964 192.674 27.2412 192.573 26.5356L192.346 22.0752C192.346 21.7728 192.472 21.4956 192.724 21.2436C192.976 20.9916 193.304 20.7648 193.707 20.5632C194.11 20.3616 194.538 20.2104 194.992 20.1096C195.446 20.0088 195.849 19.9584 196.202 19.9584C197.058 19.9584 197.487 20.5128 197.487 21.6216V21.9996L197.411 23.6628V24.1164C197.411 24.4692 197.487 24.6834 197.638 24.759C197.789 24.8346 198.092 24.9228 198.545 25.0236H198.772C199.175 25.074 199.83 25.1244 200.738 25.1748C201.645 25.2252 202.552 25.326 203.459 25.4772C204.366 25.6284 205.16 25.8678 205.841 26.1954C206.521 26.523 206.861 26.9892 206.861 27.594C206.861 27.7956 206.811 28.0854 206.71 28.4634C206.609 28.8414 206.483 29.2194 206.332 29.5974C206.181 29.9754 206.055 30.3156 205.954 30.618C205.853 30.9204 205.803 31.122 205.803 31.2228C204.896 34.7004 204.442 38.3292 204.442 42.1092C204.442 42.4116 204.467 42.966 204.518 43.7724C204.568 44.5788 204.669 45.4104 204.82 46.2672C204.971 47.124 205.198 47.88 205.5 48.5352C205.803 49.1904 206.181 49.518 206.634 49.518C207.39 49.518 208.071 49.0518 208.676 48.1194C209.28 47.187 209.81 46.1034 210.263 44.8686C210.717 43.6338 211.082 42.3864 211.359 41.1264C211.637 39.8664 211.826 38.934 211.926 38.3292C212.027 37.7748 212.191 37.4346 212.418 37.3086C212.645 37.1826 212.859 37.1196 213.06 37.1196C213.766 37.1196 214.119 37.5732 214.119 38.4804C214.119 38.5812 214.106 38.8458 214.081 39.2742C214.056 39.7026 214.018 40.0176 213.968 40.2192Z" fill="black"/>
<path d="M240.705 42.6384C240.604 43.344 240.352 44.1756 239.949 45.1332C239.546 46.0908 239.029 47.0106 238.399 47.8926C237.769 48.7746 237.038 49.518 236.207 50.1228C235.375 50.7276 234.455 51.03 233.447 51.03C231.935 51.03 230.612 50.4504 229.478 49.2912C228.344 48.132 227.651 46.494 227.399 44.3772C227.097 45.1836 226.744 46.116 226.341 47.1744C225.938 48.2328 225.434 49.2156 224.829 50.1228C224.224 51.03 223.531 51.7986 222.75 52.4286C221.969 53.0586 221.049 53.3736 219.99 53.3736C219.688 53.3736 219.461 53.3484 219.31 53.298C219.159 53.2476 218.995 53.1846 218.819 53.109C218.642 53.0334 218.441 52.9704 218.214 52.92C217.987 52.8696 217.672 52.8444 217.269 52.8444C216.059 52.8444 215.039 52.4538 214.207 51.6726C213.375 50.8914 212.708 49.896 212.204 48.6864C211.7 47.4768 211.334 46.1538 211.107 44.7174C210.881 43.281 210.767 41.9328 210.767 40.6728C210.767 37.6488 210.931 34.776 211.259 32.0544C211.586 29.3328 212.128 26.9262 212.884 24.8346C213.64 22.743 214.623 21.0798 215.832 19.845C217.042 18.6102 218.504 17.9928 220.217 17.9928C221.225 17.9928 221.994 18.081 222.523 18.2574C223.052 18.4338 223.544 18.6354 223.997 18.8622C224.451 19.089 224.942 19.3284 225.471 19.5804C226.001 19.8324 226.744 20.034 227.702 20.1852C228.76 20.79 229.503 21.5082 229.932 22.3398C230.36 23.1714 230.637 24.066 230.763 25.0236C230.889 25.9812 230.927 26.9766 230.877 28.0098C230.826 29.043 230.877 30.0636 231.028 31.0716C231.028 31.122 231.141 31.1976 231.368 31.2984C231.595 31.3992 231.86 31.5126 232.162 31.6386C232.464 31.7646 232.729 31.941 232.956 32.1678C233.183 32.3946 233.296 32.6844 233.296 33.0372V33.3396C232.792 34.65 232.49 35.8092 232.389 36.8172C232.288 37.8252 232.238 39.0348 232.238 40.446C232.238 41.1516 232.275 41.9202 232.351 42.7518C232.427 43.5834 232.553 44.3646 232.729 45.0954C232.905 45.8262 233.17 46.431 233.523 46.9098C233.876 47.3886 234.329 47.628 234.884 47.628C235.488 47.628 236.03 47.3256 236.509 46.7208C236.988 46.116 237.391 45.423 237.719 44.6418C238.046 43.8606 238.323 43.0668 238.55 42.2604C238.777 41.454 238.916 40.8492 238.966 40.446C239.067 39.8412 239.319 39.5388 239.722 39.5388C239.974 39.5388 240.213 39.6774 240.44 39.9546C240.667 40.2318 240.78 40.7232 240.78 41.4288C240.78 41.6304 240.78 41.8194 240.78 41.9958C240.78 42.1722 240.755 42.3864 240.705 42.6384ZM226.719 30.3912C226.719 29.8368 226.668 29.1816 226.568 28.4256C226.467 27.6696 226.29 26.964 226.038 26.3088C225.786 25.6536 225.408 25.0992 224.904 24.6456C224.4 24.192 223.72 23.9652 222.863 23.9652C221.452 23.9652 220.305 24.6078 219.423 25.893C218.541 27.1782 217.848 28.6902 217.344 30.429C216.84 32.1678 216.513 33.957 216.362 35.7966C216.21 37.6362 216.135 39.0852 216.135 40.1436C216.135 40.95 216.173 41.9202 216.248 43.0542C216.324 44.1882 216.462 45.2592 216.664 46.2672C216.866 47.2752 217.155 48.132 217.533 48.8376C217.911 49.5432 218.403 49.896 219.008 49.896C220.469 49.896 221.591 49.329 222.372 48.195C223.153 47.061 223.745 45.6498 224.148 43.9614C224.552 42.273 224.841 40.4586 225.018 38.5182C225.194 36.5778 225.358 34.8012 225.509 33.1884C225.61 32.3316 225.837 31.7898 226.19 31.563C226.542 31.3362 226.719 31.1724 226.719 31.0716V30.3912Z" fill="black"/>
<path d="M262.83 32.2812C262.125 33.642 261.47 35.0784 260.865 36.5904C260.26 38.1024 259.806 39.2868 259.504 40.1436C259.454 40.3956 259.315 40.9248 259.088 41.7312C258.861 42.5376 258.609 43.4322 258.332 44.415C258.055 45.3978 257.816 46.368 257.614 47.3256C257.412 48.2832 257.312 49.0644 257.312 49.6692C257.312 49.9212 257.085 50.148 256.631 50.3496C256.178 50.5512 255.598 50.652 254.892 50.652C253.784 50.652 252.902 50.5008 252.246 50.1984C251.591 49.896 251.1 49.4046 250.772 48.7242C250.445 48.0438 250.243 47.1492 250.167 46.0404C250.092 44.9316 250.054 43.596 250.054 42.0336V36.3636C250.054 35.9604 250.041 35.5572 250.016 35.154C249.991 34.7508 249.903 34.4988 249.752 34.398C249.5 34.4988 249.185 35.154 248.807 36.3636C248.429 37.5732 248.076 39.0474 247.748 40.7862C247.421 42.525 247.131 44.352 246.879 46.2672C246.627 48.1824 246.501 49.896 246.501 51.408C246.501 51.9624 246.211 52.29 245.631 52.3908C245.052 52.4916 244.409 52.542 243.704 52.542C243.502 52.542 243.162 52.5042 242.683 52.4286C242.204 52.353 241.725 52.2648 241.247 52.164C240.768 52.0632 240.327 51.9246 239.924 51.7482C239.52 51.5718 239.268 51.3576 239.168 51.1056C238.916 50.4504 238.727 49.3668 238.601 47.8548C238.475 46.3428 238.412 43.9992 238.412 40.824C238.412 38.9592 238.449 36.792 238.525 34.3224C238.601 31.8528 238.689 28.9548 238.79 25.6284C238.79 25.1748 238.764 24.5826 238.714 23.8518C238.664 23.121 238.638 22.7052 238.638 22.6044C238.638 22.2012 238.802 21.9618 239.13 21.8862C239.457 21.8106 239.697 21.7728 239.848 21.7728C240.201 21.7728 240.617 21.8106 241.095 21.8862C241.574 21.9618 242.053 22.05 242.532 22.1508C243.011 22.2516 243.452 22.365 243.855 22.491C244.258 22.617 244.535 22.7304 244.686 22.8312V41.0508C244.938 40.0428 245.228 38.871 245.556 37.5354C245.883 36.1998 246.261 34.8768 246.69 33.5664C247.118 32.256 247.584 31.0464 248.088 29.9376C248.592 28.8288 249.122 28.0224 249.676 27.5184C249.878 27.3672 250.256 27.2538 250.81 27.1782C251.364 27.1026 251.818 27.0648 252.171 27.0648C252.423 27.0648 252.738 27.1026 253.116 27.1782C253.494 27.2538 253.859 27.3672 254.212 27.5184C254.565 27.6696 254.88 27.8586 255.157 28.0854C255.434 28.3122 255.598 28.5768 255.648 28.8792V41.1264V41.8068C255.648 42.1092 255.699 42.2604 255.8 42.2604C255.9 42.2604 256.19 41.58 256.669 40.2192C257.148 38.8584 257.715 37.2456 258.37 35.3808C259.025 33.516 259.731 31.6008 260.487 29.6352C261.243 27.6696 261.923 26.1072 262.528 24.948C262.629 24.7464 262.969 24.633 263.549 24.6078C264.128 24.5826 264.645 24.57 265.098 24.57C265.451 24.57 265.93 24.6834 266.535 24.9102C267.14 25.137 267.732 25.452 268.311 25.8552C268.891 26.2584 269.395 26.712 269.823 27.216C270.252 27.72 270.466 28.2492 270.466 28.8036C270.466 28.9044 270.315 29.1942 270.012 29.673C269.71 30.1518 269.508 30.6432 269.408 31.1472C269.055 32.5584 268.815 33.9444 268.689 35.3052C268.563 36.666 268.5 38.4048 268.5 40.5216C268.5 41.4288 268.538 42.336 268.614 43.2432C268.689 44.1504 268.815 44.9694 268.992 45.7002C269.168 46.431 269.408 47.0232 269.71 47.4768C270.012 47.9304 270.416 48.1572 270.92 48.1572C271.625 48.1572 272.255 47.9178 272.81 47.439C273.364 46.9602 273.843 46.3176 274.246 45.5112C274.649 44.7048 275.002 43.7598 275.304 42.6762C275.607 41.5926 275.859 40.4712 276.06 39.312C276.312 38.1024 276.766 37.4976 277.421 37.4976C277.824 37.4976 278.089 37.5984 278.215 37.8C278.341 38.0016 278.404 38.4552 278.404 39.1608C278.404 39.564 278.379 39.8412 278.328 39.9924C278.278 40.6476 278.064 41.6682 277.686 43.0542C277.308 44.4402 276.779 45.8262 276.098 47.2122C275.418 48.5982 274.574 49.8078 273.566 50.841C272.558 51.8742 271.398 52.3908 270.088 52.3908C268.526 52.3908 267.24 52.0254 266.232 51.2946C265.224 50.5638 264.443 49.581 263.889 48.3462C263.334 47.1114 262.944 45.6876 262.717 44.0748C262.49 42.462 262.377 40.7736 262.377 39.0096V38.4804L262.83 32.2812Z" fill="black"/>
<defs>
<linearGradient id="paint0_linear_5_13" x1="16.5" y1="13.5" x2="48.5" y2="52.5" gradientUnits="userSpaceOnUse">
<stop stop-color="#4F62D3"/>
<stop offset="0.435237" stop-color="#DE306C"/>
<stop offset="1" stop-color="#D92E7A"/>
</linearGradient>
<radialGradient id="paint1_radial_5_13" cx="0" cy="0" r="1" gradientUnits="userSpaceOnUse" gradientTransform="translate(18.5 56.5) rotate(-52.7652) scale(31.4006)">
<stop stop-color="#FFC964"/>
<stop offset="1" stop-color="#FFA600" stop-opacity="0"/>
</radialGradient>
</defs>
</svg>
